<svg xmlns="http://www.w3.org/2000/svg" width="1600" height="340" viewBox="0 0 1500 320" fill="none"><defs><linearGradient id="wgrad" x1="55" y1="10" x2="1475" y2="310" gradientUnits="userSpaceOnUse"><stop offset="0%" stop-color="#FFE45E"/><stop offset="55%" stop-color="#FFD400"/><stop offset="100%" stop-color="#FFBF00"/></linearGradient></defs><g transform="translate(55,10)">
<g stroke="url(#wgrad)" stroke-width="42" stroke-linecap="round" stroke-linejoin="round" fill="none">
  <line x1="40" y1="70" x2="170" y2="70"/>
  <line x1="105" y1="70" x2="105" y2="245"/>
  <line x1="250" y1="245" x2="330" y2="70"/>
  <line x1="410" y1="245" x2="330" y2="70"/>
  <line x1="500" y1="70" x2="500" y2="245"/>
  <line x1="500" y1="162" x2="625" y2="70"/>
  <line x1="500" y1="162" x2="625" y2="245"/>
  <circle cx="790" cy="157" r="88"/>
  <line x1="950" y1="70" x2="950" y2="245"/>
  <line x1="950" y1="162" x2="1075" y2="70"/>
  <line x1="950" y1="162" x2="1075" y2="245"/>
  <line x1="1160" y1="70" x2="1160" y2="245"/>
  <line x1="1240" y1="70" x2="1370" y2="70"/>
  <line x1="1305" y1="70" x2="1305" y2="245"/>
</g>
<g fill="url(#wgrad)">
  <rect x="748" y="140" width="10" height="34" rx="5"/>
  <rect x="767" y="126" width="12" height="62" rx="6"/>
  <rect x="790" y="108" width="14" height="98" rx="7"/>
  <rect x="815" y="126" width="12" height="62" rx="6"/>
  <rect x="836" y="140" width="10" height="34" rx="5"/>
</g></g></svg>